<?xml version="1.0" standalone="no"?>
<!DOCTYPE svg PUBLIC "-//W3C//DTD SVG 20010904//EN"
 "http://www.w3.org/TR/2001/REC-SVG-20010904/DTD/svg10.dtd">
<svg version="1.0" xmlns="http://www.w3.org/2000/svg"
 width="300px" height="20px" viewBox="0 0 500.000000 500.000000"
 preserveAspectRatio="xMidYMid meet">

<g transform="translate(0.000000,500.000000) scale(0.100000,-0.100000)"
fill="#000000" stroke="none">
<path d="M1504 3425 c-4 -16 -7 -41 -8 -56 -1 -18 -5 -24 -10 -18 -23 22 -27
7 -5 -17 l24 -26 -24 7 c-31 10 -18 -13 15 -25 13 -5 24 -14 24 -20 0 -6 -18
-1 -39 10 -33 16 -40 17 -45 5 -3 -10 7 -20 32 -32 30 -15 33 -19 16 -21 -11
-2 -33 4 -49 12 -33 17 -50 5 -34 -25 14 -26 99 -43 127 -25 16 10 27 1 17
-13 -3 -6 -29 -11 -57 -11 -40 0 -49 -3 -44 -15 5 -13 3 -13 -17 0 -13 8 -32
16 -42 18 -11 1 -26 6 -33 11 -7 4 -15 6 -17 4 -8 -8 48 -108 60 -108 8 0 16
-4 20 -9 3 -6 -9 -5 -27 1 -18 6 -52 12 -75 13 -22 1 -46 5 -51 9 -7 4 -10 -5
-10 -24 1 -16 5 -30 10 -30 5 0 7 -4 4 -9 -6 -9 22 -19 79 -28 42 -7 44 -13 4
-14 -30 0 -87 -17 -65 -18 4 -1 -2 -10 -15 -22 l-24 -20 33 4 c17 2 32 0 32
-5 0 -4 -15 -8 -32 -9 -28 0 -30 -2 -13 -9 17 -7 17 -9 3 -9 -23 -1 -24 -31
-2 -31 13 0 14 -3 4 -15 -10 -12 -7 -17 14 -26 17 -8 22 -15 15 -20 -22 -13
36 -39 93 -42 52 -2 73 -17 24 -17 -12 0 -27 -5 -33 -11 -9 -9 -38 -7 -113 5
-79 14 -108 15 -135 6 -31 -10 -33 -13 -22 -31 8 -13 20 -19 35 -16 17 3 22 0
22 -15 0 -14 5 -18 15 -14 8 3 15 2 15 -2 0 -5 16 -7 35 -6 19 2 35 -1 35 -7
0 -6 6 -7 13 -2 23 14 47 14 41 -2 -9 -24 18 -50 54 -51 26 0 31 3 27 17 -6
19 10 35 20 19 4 -7 12 -7 25 0 13 7 20 6 23 -3 3 -9 7 -9 19 0 8 7 18 10 21
6 4 -3 7 -4 7 -2 0 2 7 22 16 44 l15 40 -6 -40 c-4 -22 -8 -98 -11 -169 -3
-96 -8 -134 -19 -146 -23 -25 -19 -27 40 -26 30 0 55 2 55 5 0 2 -7 12 -15 22
-17 18 -20 51 -17 172 2 69 4 79 22 84 11 3 20 9 20 14 0 5 7 9 16 9 9 0 18 8
21 18 2 10 18 27 36 37 28 17 29 19 11 26 -17 7 -17 8 -1 8 10 1 15 6 12 11
-3 6 -1 10 4 10 6 0 11 6 11 14 0 11 -6 12 -37 1 -21 -7 -53 -16 -70 -20 -28
-6 -33 -4 -33 12 0 16 6 19 30 15 41 -6 96 6 115 24 14 14 10 39 -11 62 -1 2
-12 -6 -23 -17 -23 -23 -55 -29 -48 -8 2 6 9 11 13 10 13 -2 60 35 53 42 -4 3
-26 1 -50 -5 -90 -23 -92 -23 -85 -11 4 6 16 11 28 11 31 0 96 40 102 64 7 26
-3 31 -75 45 -33 7 -59 13 -59 15 0 2 27 2 60 0 47 -2 60 0 60 11 0 9 -10 15
-22 15 -21 1 -21 2 -5 11 9 5 17 16 17 22 0 15 -65 41 -80 32 -5 -3 -10 -1
-10 6 0 7 11 10 30 7 23 -4 35 2 55 24 l25 28 -30 0 c-16 0 -30 5 -30 10 0 6
-12 10 -27 10 l-28 1 28 15 c30 16 36 39 12 48 -8 3 -15 0 -15 -6 0 -6 -3 -8
-6 -5 -4 4 -2 12 3 19 13 18 -4 98 -20 93 -7 -3 -29 18 -49 47 l-37 51 -7 -28z
m96 -139 c0 -11 -19 -15 -25 -6 -3 5 1 10 9 10 9 0 16 -2 16 -4z m-50 -146 c0
-5 -7 -10 -16 -10 -8 0 -12 5 -9 10 3 6 10 10 16 10 5 0 9 -4 9 -10z m-11 -91
c-8 -5 -21 -8 -29 -8 -9 0 -6 5 8 11 12 6 22 16 23 22 0 6 3 5 6 -3 3 -7 -1
-17 -8 -22z m6 -209 c4 -6 -7 -10 -27 -9 -27 0 -30 2 -13 9 27 12 33 12 40 0z
m5 -44 c0 -3 -4 -8 -10 -11 -5 -3 -10 -1 -10 4 0 6 5 11 10 11 6 0 10 -2 10
-4z m105 -66 c3 -6 -4 -10 -17 -10 -18 0 -20 2 -8 10 19 12 18 12 25 0z"/>
<path d="M1880 2710 l0 -110 70 0 c84 0 94 18 13 22 l-58 3 -3 38 -3 37 60 0
c77 0 80 18 4 22 l-58 3 0 35 0 35 58 3 c81 4 71 22 -13 22 l-70 0 0 -110z"/>
<path d="M2404 2803 c53 -143 81 -203 97 -203 12 0 28 28 58 103 46 113 46
117 28 117 -7 0 -28 -40 -46 -90 -18 -49 -36 -90 -40 -90 -4 0 -22 41 -40 90
-22 58 -39 90 -48 90 -10 0 -13 -6 -9 -17z"/>
<path d="M2637 2813 c-12 -11 -8 -23 8 -23 8 0 15 7 15 15 0 16 -12 20 -23 8z"/>
<path d="M2710 2710 c0 -67 4 -110 10 -110 6 0 10 5 10 10 0 7 6 7 19 0 34
-18 68 -12 90 16 55 70 -14 164 -90 124 -17 -10 -19 -7 -19 30 0 22 -4 40 -10
40 -6 0 -10 -43 -10 -110z m108 18 c16 -16 16 -80 0 -96 -7 -7 -24 -12 -38
-12 -36 0 -50 17 -50 62 0 25 6 40 18 47 23 14 55 14 70 -1z"/>
<path d="M2080 2738 c-47 -50 -12 -138 54 -138 34 0 66 23 47 34 -5 4 -12 2
-16 -4 -10 -16 -51 -11 -68 8 -22 24 -21 65 1 85 21 19 57 22 67 7 4 -6 11 -8
16 -4 19 11 -13 34 -47 34 -21 0 -40 -8 -54 -22z"/>
<path d="M2251 2743 c-12 -10 -24 -34 -27 -53 -15 -93 110 -128 146 -40 31 76
-56 144 -119 93z m83 -19 c34 -34 13 -104 -32 -104 -36 0 -52 17 -52 53 0 61
47 89 84 51z"/>
<path d="M2640 2680 c0 -47 4 -80 10 -80 6 0 10 33 10 80 0 47 -4 80 -10 80
-6 0 -10 -33 -10 -80z"/>
<path d="M2919 2741 c-18 -14 -24 -29 -24 -61 0 -32 6 -47 24 -61 23 -19 65
-25 95 -13 31 12 16 22 -24 17 -41 -6 -70 8 -70 33 0 10 16 14 60 14 57 0 60
1 60 25 0 57 -74 85 -121 46z m89 -13 c26 -26 13 -38 -38 -38 -34 0 -50 4 -50
13 0 21 22 37 50 37 14 0 31 -5 38 -12z"/>
<path d="M1840 2430 c0 -53 4 -90 10 -90 6 0 10 37 10 90 0 53 -4 90 -10 90
-6 0 -10 -37 -10 -90z"/>
<path d="M2710 2511 c0 -6 5 -13 10 -16 6 -3 10 1 10 9 0 9 -4 16 -10 16 -5 0
-10 -4 -10 -9z"/>
<path d="M2641 2488 c0 -10 -9 -18 -18 -18 -17 -1 -17 -1 0 -14 12 -10 17 -27
17 -65 0 -44 3 -51 20 -51 23 0 27 15 5 24 -10 3 -15 19 -15 46 0 29 4 40 15
40 8 0 15 5 15 10 0 6 -6 10 -14 10 -8 0 -17 8 -19 18 -4 16 -5 16 -6 0z"/>
<path d="M1910 2403 c0 -35 4 -63 10 -63 6 0 10 22 10 50 0 38 4 52 19 59 30
16 50 -7 54 -64 3 -38 4 -34 3 15 l-1 65 -47 1 -48 1 0 -64z"/>
<path d="M2062 2400 c1 -56 2 -58 5 -18 3 34 10 52 25 62 34 24 48 10 48 -50
0 -31 4 -54 10 -54 7 0 10 24 8 63 l-3 62 -47 0 -48 0 2 -65z"/>
<path d="M2217 2452 c-22 -25 -21 -75 1 -95 42 -38 102 -8 102 50 0 55 -67 85
-103 45z m75 -16 c17 -24 8 -67 -14 -75 -35 -13 -58 4 -58 44 0 48 47 68 72
31z"/>
<path d="M2361 2418 c12 -29 23 -59 26 -65 11 -28 29 -10 54 52 32 77 19 88
-15 13 l-24 -53 -12 30 c-6 17 -16 40 -21 53 -5 12 -13 22 -19 22 -5 0 0 -24
11 -52z"/>
<path d="M2500 2460 c-21 -13 -5 -23 18 -11 26 14 52 4 52 -18 0 -14 -7 -16
-35 -13 -29 4 -36 0 -44 -19 -15 -40 3 -59 54 -57 l45 1 0 52 c0 28 -5 56 -12
63 -14 14 -57 16 -78 2z m58 -59 c20 -12 10 -45 -14 -49 -29 -4 -51 23 -34 43
14 17 29 19 48 6z"/>
<path d="M2710 2405 c0 -37 4 -65 10 -65 6 0 10 28 10 65 0 37 -4 65 -10 65
-6 0 -10 -28 -10 -65z"/>
<path d="M2793 2462 c-32 -20 -32 -94 0 -114 40 -26 97 8 97 57 0 49 -57 83
-97 57z m72 -57 c0 -17 -8 -33 -22 -42 -19 -13 -24 -12 -42 6 -12 12 -21 28
-21 36 0 8 9 24 21 36 18 18 23 19 42 6 14 -9 22 -25 22 -42z"/>
<path d="M2932 2400 c1 -56 2 -58 5 -18 3 34 10 52 25 62 34 24 48 10 48 -50
0 -31 4 -54 10 -54 7 0 10 24 8 63 l-3 62 -47 0 -48 1 2 -66z"/>
<path d="M3083 2463 c-7 -2 -13 -15 -13 -27 0 -18 10 -27 42 -40 40 -15 41
-17 25 -33 -14 -14 -21 -15 -43 -5 -20 10 -25 10 -22 0 6 -16 32 -22 64 -14
17 5 24 13 24 32 0 13 -6 27 -12 29 -69 24 -70 25 -57 41 8 10 22 13 43 9 23
-5 27 -4 16 4 -16 11 -46 13 -67 4z"/>
</g>
</svg>
